<?xml version="1.0" standalone="no"?>
<!DOCTYPE svg PUBLIC "-//W3C//DTD SVG 20010904//EN"
 "http://www.w3.org/TR/2001/REC-SVG-20010904/DTD/svg10.dtd">
<svg version="1.0" xmlns="http://www.w3.org/2000/svg"
 width="512.000000pt" height="512.000000pt" viewBox="0 0 512.000000 512.000000"
 preserveAspectRatio="xMidYMid meet">
<metadata>
Created by potrace 1.14, written by Peter Selinger 2001-2017
</metadata>
<g transform="translate(0.000000,512.000000) scale(0.100000,-0.100000)"
fill="#000000" stroke="none">
<path d="M3114 4519 l1 -211 60 -42 c33 -23 68 -45 78 -49 9 -3 17 -11 17 -17
0 -5 5 -10 10 -10 12 0 184 -111 188 -122 2 -5 9 -8 16 -8 7 0 22 -9 34 -20
12 -12 22 -18 22 -15 0 3 10 -3 22 -15 12 -11 28 -20 35 -20 7 0 13 -3 13 -8
0 -4 20 -18 45 -32 25 -14 45 -27 45 -30 0 -3 20 -16 45 -30 25 -14 45 -31 46
-40 3 -87 -1 -313 -5 -328 -4 -10 -16 -24 -29 -30 -31 -17 -58 -34 -80 -54
-11 -9 -34 -24 -53 -33 -18 -8 -34 -19 -36 -23 -3 -8 -104 -72 -114 -72 -7 0
-118 84 -122 93 -2 4 -9 7 -15 7 -7 0 -26 13 -43 29 l-30 28 1 121 c0 116 -10
169 -32 166 -8 -2 -36 16 -211 138 -53 38 -99 68 -102 68 -3 0 -6 -108 -5
-240 0 -176 -3 -240 -12 -240 -6 0 -13 -4 -15 -8 -1 -4 -95 -64 -208 -132
-113 -68 -206 -128 -208 -132 -2 -4 -9 -8 -17 -8 -7 0 -18 -7 -25 -15 -7 -8
-16 -12 -21 -9 -5 3 -9 0 -9 -5 0 -6 -6 -11 -14 -11 -15 0 -39 -54 -28 -64 10
-10 11 -36 1 -36 -5 0 -5 -10 1 -24 5 -13 6 -26 3 -29 -10 -10 -8 -77 2 -81 7
-3 7 -7 0 -13 -12 -10 -14 -83 -2 -83 4 0 6 -4 2 -9 -9 -15 -13 -71 -5 -71 4
0 5 -15 1 -32 -4 -18 -4 -48 0 -65 3 -18 4 -33 0 -33 -3 0 -6 -16 -6 -35 0
-19 3 -35 6 -35 4 0 4 -14 -1 -30 -11 -38 -11 -42 2 -57 6 -7 7 -13 2 -13 -5
0 -9 -27 -9 -60 0 -33 4 -60 8 -60 4 0 4 -8 -1 -17 -5 -10 -7 -30 -5 -46 3
-20 -1 -29 -14 -34 -10 -4 -96 -51 -192 -105 -95 -54 -177 -98 -182 -98 -7 0
-151 107 -198 147 -6 5 -8 244 -3 261 3 7 17 19 32 27 16 8 34 20 42 27 7 7
47 36 88 63 l75 50 0 198 c0 108 -3 197 -7 197 -12 0 -283 -181 -286 -191 -2
-5 -8 -9 -14 -9 -6 0 -26 -11 -44 -25 -18 -14 -36 -25 -40 -25 -4 0 -15 -6
-23 -14 -14 -12 -36 0 -171 90 -85 56 -161 103 -168 103 -7 1 -50 -23 -95 -52
-45 -30 -86 -54 -91 -55 -5 0 -12 -4 -15 -9 -7 -11 -73 -57 -83 -59 -5 -1 -11
-2 -15 -3 -11 -2 29 -41 43 -41 7 0 14 -4 16 -8 2 -5 39 -33 83 -62 44 -30 85
-58 90 -62 20 -17 157 -108 162 -108 3 0 19 -12 36 -26 31 -26 31 -27 32 -124
l1 -98 -65 -44 c-35 -23 -71 -48 -80 -53 -44 -28 -107 -70 -111 -75 -3 -4 -22
-17 -43 -29 l-39 -24 -171 116 -172 116 1 383 c1 211 2 386 3 389 0 3 21 19
46 35 25 15 45 32 45 36 0 4 6 8 14 8 8 0 28 11 44 25 17 14 35 25 41 25 6 0
11 4 11 9 0 5 16 16 35 25 19 9 35 21 35 26 0 6 5 10 10 10 11 0 62 34 87 57
7 6 22 15 33 18 11 3 20 10 20 15 0 5 8 11 19 15 10 3 29 15 42 26 23 20 24
25 25 180 0 87 3 161 5 163 2 2 36 -18 74 -45 39 -27 77 -52 86 -56 18 -9 229
-144 377 -242 53 -35 104 -64 114 -63 17 1 500 320 506 334 2 5 7 6 10 4 4 -2
13 2 20 10 11 12 10 15 -5 21 -10 4 -20 9 -23 12 -3 4 -16 12 -30 19 -47 25
-90 49 -102 59 -7 6 -40 25 -73 43 -33 17 -66 37 -73 42 -9 8 -42 -9 -125 -64
l-112 -74 -155 102 c-85 57 -160 108 -167 113 -7 6 -14 11 -17 11 -7 0 -75 45
-108 72 l-27 22 22 11 c12 7 45 25 72 40 28 16 59 33 69 39 11 6 25 15 30 19
48 36 342 197 353 193 8 -3 53 -29 101 -57 48 -29 103 -61 122 -72 96 -54 175
-102 178 -109 2 -5 12 -8 23 -8 10 0 19 -5 19 -11 0 -5 3 -8 8 -5 6 3 9 346 3
404 0 6 -8 12 -16 12 -8 0 -15 5 -15 11 0 5 -4 7 -10 4 -5 -3 -10 -1 -10 4 0
6 -5 11 -10 11 -6 0 -29 12 -53 27 -23 15 -44 28 -47 28 -6 0 -69 38 -137 82
-28 18 -54 33 -57 33 -3 0 -28 14 -55 30 -53 33 -62 32 -126 -10 -16 -11 -48
-30 -70 -42 -22 -12 -49 -28 -60 -35 -11 -7 -31 -18 -45 -25 -14 -7 -55 -32
-92 -55 -38 -24 -68 -40 -68 -35 0 4 -4 2 -8 -4 -4 -6 -29 -24 -57 -39 -27
-14 -79 -44 -115 -66 -36 -22 -74 -44 -85 -50 -11 -5 -33 -18 -50 -28 -16 -11
-52 -32 -80 -47 -27 -14 -62 -35 -77 -45 -14 -11 -31 -19 -37 -19 -6 0 -11 -3
-11 -8 0 -4 -15 -14 -32 -21 -18 -8 -46 -24 -63 -35 -16 -12 -32 -22 -34 -24
-3 -1 -5 -127 -5 -279 l-1 -276 -115 -78 c-63 -43 -120 -83 -127 -89 -7 -5
-16 -10 -20 -10 -5 0 -21 -11 -36 -25 -15 -14 -27 -22 -27 -18 0 4 -4 3 -8 -3
-4 -5 -37 -30 -74 -53 -38 -24 -68 -48 -68 -53 0 -5 -4 -7 -9 -3 -5 3 -13 0
-17 -7 -5 -7 -8 -271 -9 -585 l0 -573 160 -107 c88 -59 161 -111 163 -115 2
-4 8 -8 13 -8 6 0 15 -5 22 -10 7 -6 44 -32 82 -58 l70 -47 0 -270 c1 -149 4
-276 9 -283 7 -11 48 -41 105 -77 9 -6 54 -35 101 -66 251 -165 385 -251 386
-248 0 2 15 -8 33 -24 18 -15 36 -27 40 -27 4 0 17 -9 29 -20 12 -12 22 -18
22 -15 0 4 7 0 15 -7 33 -30 50 -43 52 -41 2 2 52 -29 112 -68 60 -39 113 -72
117 -73 5 0 9 93 9 208 l0 208 -30 21 c-16 12 -31 25 -33 29 -2 4 -8 8 -13 8
-11 0 -273 172 -277 183 -2 4 -8 7 -13 7 -5 0 -32 16 -59 35 -27 19 -54 35
-59 35 -5 0 -11 4 -13 8 -1 4 -42 34 -91 65 -48 31 -87 62 -88 69 -1 17 -1
299 0 319 1 10 24 32 52 50 28 18 57 39 65 46 8 8 14 11 14 7 0 -4 8 0 18 9
41 37 153 106 171 104 11 0 17 -5 15 -9 -3 -4 1 -8 10 -8 8 0 16 -3 18 -8 2
-4 39 -33 83 -65 l80 -57 0 -122 c-1 -68 1 -129 3 -136 4 -10 333 -242 344
-242 2 0 3 107 3 237 l0 238 50 32 c28 18 55 36 60 40 6 4 17 9 25 11 8 2 17
7 20 10 9 12 89 62 99 62 5 0 16 6 23 14 8 7 32 23 54 35 21 12 68 39 103 61
34 22 67 40 72 40 4 0 19 11 32 24 23 23 24 29 25 177 3 700 4 735 22 745 55
29 157 90 168 101 7 7 20 13 27 13 7 0 20 6 27 13 15 13 38 27 104 62 l42 22
41 -37 c23 -21 41 -35 41 -31 1 3 8 -3 18 -14 9 -11 34 -31 54 -45 21 -14 38
-32 39 -40 1 -24 1 -202 0 -230 -1 -20 -24 -40 -120 -104 l-118 -80 1 -198 c0
-155 3 -198 13 -198 7 0 13 5 13 10 0 6 7 10 15 10 8 0 15 5 15 10 0 6 4 10 9
10 11 0 98 57 119 77 8 7 18 10 24 7 7 -4 8 -2 4 4 -4 7 -2 12 3 12 6 0 13 0
16 0 3 0 14 8 24 18 35 31 50 42 59 42 4 0 17 8 28 18 10 10 26 21 34 25 8 4
25 14 36 22 20 14 23 14 38 0 9 -9 16 -14 16 -10 0 4 7 0 15 -7 28 -25 44 -36
133 -88 28 -17 52 -36 52 -42 0 -6 3 -9 6 -5 3 3 24 -7 47 -23 23 -16 44 -25
47 -21 3 4 23 18 45 31 22 13 49 32 59 42 10 9 23 15 27 12 4 -2 11 2 16 9 4
8 38 32 75 54 77 46 79 39 -32 113 -36 24 -66 47 -68 52 -2 4 -10 8 -17 8 -8
0 -20 6 -27 13 -7 7 -56 42 -108 77 -52 36 -99 68 -105 73 -5 4 -18 13 -27 20
-19 13 -20 20 -16 134 l3 72 58 40 c32 23 62 41 67 41 4 0 10 3 12 8 2 4 27
23 56 41 30 19 59 39 66 45 25 24 77 47 89 40 6 -4 83 -55 170 -112 116 -78
157 -111 158 -126 6 -170 -1 -760 -9 -765 -67 -43 -248 -168 -250 -173 -2 -5
-8 -8 -14 -8 -6 0 -27 -13 -47 -28 -20 -16 -43 -32 -51 -35 -8 -4 -42 -27 -75
-51 l-60 -43 -1 -159 c-1 -161 -6 -181 -38 -149 -9 9 -16 13 -16 8 0 -4 -4 -3
-8 2 -4 6 -95 67 -202 135 -107 68 -197 126 -200 129 -7 8 -41 29 -60 38 -8 4
-19 11 -25 15 -25 21 -87 58 -95 58 -6 0 -10 6 -10 13 0 8 -3 9 -8 1 -8 -12
-506 -342 -529 -351 -11 -5 -11 -9 4 -22 11 -9 28 -21 39 -27 10 -6 30 -17 44
-25 14 -8 27 -16 30 -19 3 -3 21 -13 40 -23 59 -31 95 -52 100 -57 11 -11 51
-30 62 -30 7 0 60 31 118 69 l104 69 101 -67 c55 -37 162 -108 238 -158 l137
-91 -35 -21 c-20 -11 -40 -21 -46 -21 -5 0 -9 -4 -9 -10 0 -5 -4 -10 -10 -10
-5 0 -50 -25 -101 -55 -50 -30 -95 -55 -100 -55 -5 0 -9 -5 -9 -12 0 -6 -3 -8
-6 -5 -4 3 -18 -2 -32 -13 -13 -11 -28 -17 -33 -14 -5 3 -9 0 -9 -5 0 -6 -15
-19 -34 -28 -18 -10 -52 -28 -75 -41 l-42 -23 -90 53 c-50 29 -109 64 -132 77
-23 13 -44 27 -47 30 -3 3 -25 17 -50 30 -109 57 -125 67 -132 76 -11 14 -11
19 -12 -199 l-2 -199 52 -33 c29 -19 58 -34 64 -34 6 0 13 -7 16 -15 4 -8 10
-12 15 -9 5 3 9 0 9 -5 0 -6 5 -11 11 -11 6 0 38 -16 72 -36 58 -34 91 -53
148 -86 13 -7 26 -15 29 -18 3 -3 15 -11 28 -18 20 -11 29 -10 65 10 23 13 44
26 47 29 3 4 23 16 45 28 90 49 161 90 170 98 6 5 24 16 40 25 53 27 430 247
442 257 7 6 14 11 17 11 3 0 55 29 116 65 61 36 115 65 120 65 19 0 22 48 23
305 l0 270 156 105 c86 58 164 109 174 113 9 3 17 10 17 15 0 5 14 15 30 22
17 7 30 16 30 20 0 3 12 13 28 21 15 8 38 24 51 36 l24 21 0 571 c0 314 -2
573 -4 575 -2 2 -33 23 -69 47 -36 24 -66 47 -68 51 -2 5 -8 8 -13 8 -5 0 -44
24 -86 54 -43 29 -121 82 -173 118 l-95 64 0 275 0 274 -25 20 c-14 12 -122
83 -240 160 -118 76 -220 143 -225 149 -6 6 -17 12 -25 14 -8 2 -17 7 -20 11
-3 3 -30 22 -60 41 -30 19 -56 38 -58 42 -2 5 -10 8 -17 8 -8 0 -18 7 -23 16
-5 8 -15 16 -23 17 -9 2 -28 13 -43 25 -16 12 -32 22 -37 22 -4 0 -14 6 -21
13 -7 7 -38 28 -68 47 -30 19 -56 38 -58 42 -2 5 -9 8 -15 8 -7 0 -23 9 -37
20 -14 11 -27 20 -31 20 -3 0 -5 -95 -5 -211z"/>
</g>
</svg>
